<svg fill="none" height="64" viewBox="0 0 64 64" width="64" xmlns="http://www.w3.org/2000/svg"><rect fill="#1c1c1e" height="64" rx="32" width="64"/><g fill="#6b6e73" opacity=".5"><path d="m13.2019 37.0909v-10.1818h1.5362v8.8594h4.6137v1.3224z"/><path d="m29.5522 32c0 1.0871-.1988 2.0218-.5966 2.804-.3977.7789-.9429 1.3788-1.6356 1.7997-.6894.4176-1.4733.6264-2.3516.6264-.8816 0-1.6688-.2088-2.3615-.6264-.6894-.4209-1.2329-1.0225-1.6307-1.8047-.3977-.7822-.5966-1.7152-.5966-2.799 0-1.0871.1989-2.0201.5966-2.799.3978-.7822.9413-1.3821 1.6307-1.7997.6927-.4209 1.4799-.6314 2.3615-.6314.8783 0 1.6622.2105 2.3516.6314.6927.4176 1.2379 1.0175 1.6356 1.7997.3978.7789.5966 1.7119.5966 2.799zm-1.5213 0c0-.8286-.1342-1.5263-.4027-2.093-.2651-.5701-.6297-1.001-1.0937-1.2926-.4607-.295-.9827-.4425-1.5661-.4425-.5866 0-1.1103.1475-1.571.4425-.4607.2916-.8253.7225-1.0938 1.2926-.2651.5667-.3977 1.2644-.3977 2.093s.1326 1.5279.3977 2.098c.2685.5668.6331.9977 1.0938 1.2926.4607.2917.9844.4375 1.571.4375.5834 0 1.1054-.1458 1.5661-.4375.464-.2949.8286-.7258 1.0937-1.2926.2685-.5701.4027-1.2694.4027-2.098z"/><path d="m38.3582 30.1257c-.0962-.3016-.2254-.5717-.3878-.8103-.1591-.242-.3497-.4475-.5718-.6165-.222-.1724-.4756-.3033-.7606-.3928-.2817-.0895-.5916-.1342-.9297-.1342-.5734 0-1.0904.1475-1.5511.4425-.4607.2949-.8253.7275-1.0938 1.2975-.2651.5668-.3977 1.2612-.3977 2.0831 0 .8253.1342 1.523.4027 2.0931.2684.5701.6363 1.0026 1.1037 1.2976.4673.2949.9993.4424 1.5959.4424.5535 0 1.0357-.1127 1.4467-.338.4143-.2254.7341-.5436.9595-.9546.2287-.4143.343-.9015.343-1.4616l.3978.0745h-2.9134v-1.2677h4.0022v1.1584c0 .8551-.1823 1.5975-.5469 2.2272-.3613.6265-.8618 1.1104-1.5014 1.4518-.6364.3413-1.3656.512-2.1875.512-.9214 0-1.7302-.2121-2.4262-.6363-.6927-.4243-1.2329-1.0258-1.6207-1.8047-.3878-.7822-.5817-1.7103-.5817-2.7841 0-.812.1127-1.5412.3381-2.1875s.5419-1.1949.9495-1.6456c.411-.4541.8933-.8004 1.4468-1.0391.5568-.2419 1.165-.3629 1.8246-.3629.5501 0 1.0622.0812 1.5362.2436.4772.1624.9015.3928 1.2727.6911.3745.2983.6844.6529.9297 1.0639.2453.4076.411.8601.4971 1.3572z"/><path d="m50.7983 32c0 1.0871-.1988 2.0218-.5966 2.804-.3977.7789-.9429 1.3788-1.6356 1.7997-.6894.4176-1.4733.6264-2.3516.6264-.8816 0-1.6688-.2088-2.3615-.6264-.6894-.4209-1.233-1.0225-1.6307-1.8047s-.5966-1.7152-.5966-2.799c0-1.0871.1989-2.0201.5966-2.799.3977-.7822.9413-1.3821 1.6307-1.7997.6927-.4209 1.4799-.6314 2.3615-.6314.8783 0 1.6622.2105 2.3516.6314.6927.4176 1.2379 1.0175 1.6356 1.7997.3978.7789.5966 1.7119.5966 2.799zm-1.5213 0c0-.8286-.1342-1.5263-.4027-2.093-.2651-.5701-.6297-1.001-1.0937-1.2926-.4607-.295-.9828-.4425-1.5661-.4425-.5866 0-1.1103.1475-1.571.4425-.4607.2916-.8253.7225-1.0938 1.2926-.2651.5667-.3977 1.2644-.3977 2.093s.1326 1.5279.3977 2.098c.2685.5668.6331.9977 1.0938 1.2926.4607.2917.9844.4375 1.571.4375.5833 0 1.1054-.1458 1.5661-.4375.464-.2949.8286-.7258 1.0937-1.2926.2685-.5701.4027-1.2694.4027-2.098z"/></g></svg>