<svg fill="none" height="453" viewBox="0 0 474 453" width="474" xmlns="http://www.w3.org/2000/svg"><path d="m55 104h378v104h-378z" fill="#fff"/><path d="m0 213h318v104h-318z" fill="#fff"/><path d="m75.632 5.65603v14.46397h-23.808v74.88h-17.92v-74.88h-23.808v-14.46397z" fill="#fff" fill-opacity=".15"/><path d="m128.643 23.064c5.376 0 10.155 1.1947 14.336 3.584 4.181 2.304 7.424 5.76 9.728 10.368 2.389 4.5227 3.584 9.984 3.584 16.384v41.6h-17.92v-39.168c0-5.632-1.408-9.9413-4.224-12.928-2.816-3.072-6.656-4.608-11.52-4.608-4.949 0-8.875 1.536-11.776 4.608-2.816 2.9867-4.224 7.296-4.224 12.928v39.168h-17.92v-94.719971h17.92v32.639971c2.304-3.072 5.376-5.4613 9.216-7.168 3.84-1.792 8.107-2.688 12.8-2.688z" fill="#fff" fill-opacity=".15"/><path d="m239.252 58.008c0 2.56-.171 4.864-.512 6.912h-51.84c.427 5.12 2.219 9.1307 5.376 12.032 3.157 2.9014 7.04 4.352 11.648 4.352 6.656 0 11.392-2.8586 14.208-8.576h19.328c-2.048 6.8267-5.973 12.4587-11.776 16.896-5.803 4.352-12.928 6.528-21.376 6.528-6.827 0-12.971-1.4933-18.432-4.48-5.376-3.072-9.6-7.3813-12.672-12.928-2.987-5.5466-4.48-11.9466-4.48-19.2 0-7.3386 1.493-13.7813 4.48-19.328 2.987-5.5466 7.168-9.8133 12.544-12.8 5.376-2.9866 11.563-4.48 18.56-4.48 6.741 0 12.757 1.4507 18.048 4.352 5.376 2.9014 9.515 7.04 12.416 12.416 2.987 5.2907 4.48 11.392 4.48 18.304zm-18.56-5.12c-.085-4.608-1.749-8.2773-4.992-11.008-3.243-2.816-7.211-4.224-11.904-4.224-4.437 0-8.192 1.3654-11.264 4.096-2.987 2.6454-4.821 6.3574-5.504 11.136z" fill="#fff" fill-opacity=".15"/><path d="m270.252 34.456c2.304-3.4133 5.461-6.1866 9.472-8.32 4.096-2.1333 8.747-3.2 13.952-3.2 6.059 0 11.52 1.4934 16.384 4.48 4.949 2.9867 8.832 7.2534 11.648 12.8 2.901 5.4614 4.352 11.8187 4.352 19.072 0 7.2534-1.451 13.696-4.352 19.328-2.816 5.5467-6.699 9.856-11.648 12.928-4.864 3.072-10.325 4.608-16.384 4.608-5.291 0-9.941-1.024-13.952-3.072-3.925-2.1333-7.083-4.864-9.472-8.192v10.112h-17.92v-94.719971h17.92zm37.504 24.832c0-4.2666-.896-7.936-2.688-11.008-1.707-3.1573-4.011-5.5466-6.912-7.168-2.816-1.6213-5.888-2.432-9.216-2.432-3.243 0-6.315.8534-9.216 2.56-2.816 1.6214-5.12 4.0107-6.912 7.168-1.707 3.1574-2.56 6.8694-2.56 11.136 0 4.2667.853 7.9787 2.56 11.136 1.792 3.1574 4.096 5.5894 6.912 7.296 2.901 1.6214 5.973 2.432 9.216 2.432 3.328 0 6.4-.8533 9.216-2.56 2.901-1.7066 5.205-4.1386 6.912-7.296 1.792-3.1573 2.688-6.912 2.688-11.264z" fill="#fff" fill-opacity=".15"/><path d="m405.002 58.008c0 2.56-.171 4.864-.512 6.912h-51.84c.427 5.12 2.219 9.1307 5.376 12.032 3.157 2.9014 7.04 4.352 11.648 4.352 6.656 0 11.392-2.8586 14.208-8.576h19.328c-2.048 6.8267-5.973 12.4587-11.776 16.896-5.803 4.352-12.928 6.528-21.376 6.528-6.827 0-12.971-1.4933-18.432-4.48-5.376-3.072-9.6-7.3813-12.672-12.928-2.987-5.5466-4.48-11.9466-4.48-19.2 0-7.3386 1.493-13.7813 4.48-19.328 2.987-5.5466 7.168-9.8133 12.544-12.8 5.376-2.9866 11.563-4.48 18.56-4.48 6.741 0 12.757 1.4507 18.048 4.352 5.376 2.9014 9.515 7.04 12.416 12.416 2.987 5.2907 4.48 11.392 4.48 18.304zm-18.56-5.12c-.085-4.608-1.749-8.2773-4.992-11.008-3.243-2.816-7.211-4.224-11.904-4.224-4.437 0-8.192 1.3654-11.264 4.096-2.987 2.6454-4.821 6.3574-5.504 11.136z" fill="#fff" fill-opacity=".15"/><path d="m445.218 96.152c-5.803 0-11.008-1.024-15.616-3.072-4.608-2.1333-8.277-4.992-11.008-8.576-2.645-3.584-4.096-7.552-4.352-11.904h18.048c.341 2.7307 1.664 4.992 3.968 6.784 2.389 1.792 5.333 2.688 8.832 2.688 3.413 0 6.059-.6826 7.936-2.048 1.963-1.3653 2.944-3.1146 2.944-5.248 0-2.304-1.195-4.0106-3.584-5.12-2.304-1.1946-6.016-2.4746-11.136-3.84-5.291-1.28-9.643-2.6026-13.056-3.968-3.328-1.3653-6.229-3.456-8.704-6.272-2.389-2.816-3.584-6.6133-3.584-11.392 0-3.9253 1.109-7.5093 3.328-10.752 2.304-3.2426 5.547-5.8026 9.728-7.68 4.267-1.8773 9.259-2.816 14.976-2.816 8.448 0 15.189 2.1334 20.224 6.4 5.035 4.1814 7.808 9.856 8.32 17.024h-17.152c-.256-2.816-1.451-5.0346-3.584-6.656-2.048-1.7066-4.821-2.56-8.32-2.56-3.243 0-5.76.5974-7.552 1.792-1.707 1.1947-2.56 2.8587-2.56 4.992 0 2.3894 1.195 4.224 3.584 5.504 2.389 1.1947 6.101 2.432 11.136 3.712 5.12 1.28 9.344 2.6027 12.672 3.968 3.328 1.3654 6.187 3.4987 8.576 6.4 2.475 2.816 3.755 6.5707 3.84 11.264 0 4.096-1.152 7.7654-3.456 11.008-2.219 3.2427-5.461 5.8027-9.728 7.68-4.181 1.792-9.088 2.688-14.72 2.688z" fill="#fff" fill-opacity=".15"/><path d="m35.696 146.808v34.304c0 2.389.5547 4.139 1.664 5.248 1.1947 1.024 3.1573 1.536 5.888 1.536h8.32v15.104h-11.264c-15.104 0-22.656-7.339-22.656-22.016v-34.176h-8.448v-14.72h8.448v-17.536h18.048v17.536h15.872v14.72z" fill="#fff" fill-opacity=".15"/><g fill="#0e0a0e"><path d="m103.753 131.064c8.448 0 15.275 2.688 20.48 8.064 5.205 5.291 7.808 12.715 7.808 22.272v41.6h-17.92v-39.168c0-5.632-1.408-9.941-4.224-12.928-2.816-3.072-6.656-4.608-11.52-4.608-4.9493 0-8.8747 1.536-11.776 4.608-2.816 2.987-4.224 7.296-4.224 12.928v39.168h-17.92v-70.912h17.92v8.832c2.3893-3.072 5.4187-5.461 9.088-7.168 3.7547-1.792 7.8507-2.688 12.288-2.688z"/><path d="m215.002 166.008c0 2.56-.171 4.864-.512 6.912h-51.84c.427 5.12 2.219 9.131 5.376 12.032s7.04 4.352 11.648 4.352c6.656 0 11.392-2.859 14.208-8.576h19.328c-2.048 6.827-5.973 12.459-11.776 16.896-5.803 4.352-12.928 6.528-21.376 6.528-6.827 0-12.971-1.493-18.432-4.48-5.376-3.072-9.6-7.381-12.672-12.928-2.987-5.547-4.48-11.947-4.48-19.2 0-7.339 1.493-13.781 4.48-19.328s7.168-9.813 12.544-12.8 11.563-4.48 18.56-4.48c6.741 0 12.757 1.451 18.048 4.352 5.376 2.901 9.515 7.04 12.416 12.416 2.987 5.291 4.48 11.392 4.48 18.304zm-18.56-5.12c-.085-4.608-1.749-8.277-4.992-11.008-3.243-2.816-7.211-4.224-11.904-4.224-4.437 0-8.192 1.365-11.264 4.096-2.987 2.645-4.821 6.357-5.504 11.136z"/><path d="m326.386 132.088-20.736 70.912h-19.328l-12.928-49.536-12.928 49.536h-19.456l-20.864-70.912h18.176l12.544 54.016 13.568-54.016h18.944l13.312 53.888 12.544-53.888z"/><path d="m363.218 204.152c-5.803 0-11.008-1.024-15.616-3.072-4.608-2.133-8.277-4.992-11.008-8.576-2.645-3.584-4.096-7.552-4.352-11.904h18.048c.341 2.731 1.664 4.992 3.968 6.784 2.389 1.792 5.333 2.688 8.832 2.688 3.413 0 6.059-.683 7.936-2.048 1.963-1.365 2.944-3.115 2.944-5.248 0-2.304-1.195-4.011-3.584-5.12-2.304-1.195-6.016-2.475-11.136-3.84-5.291-1.28-9.643-2.603-13.056-3.968-3.328-1.365-6.229-3.456-8.704-6.272-2.389-2.816-3.584-6.613-3.584-11.392 0-3.925 1.109-7.509 3.328-10.752 2.304-3.243 5.547-5.803 9.728-7.68 4.267-1.877 9.259-2.816 14.976-2.816 8.448 0 15.189 2.133 20.224 6.4 5.035 4.181 7.808 9.856 8.32 17.024h-17.152c-.256-2.816-1.451-5.035-3.584-6.656-2.048-1.707-4.821-2.56-8.32-2.56-3.243 0-5.76.597-7.552 1.792-1.707 1.195-2.56 2.859-2.56 4.992 0 2.389 1.195 4.224 3.584 5.504 2.389 1.195 6.101 2.432 11.136 3.712 5.12 1.28 9.344 2.603 12.672 3.968s6.187 3.499 8.576 6.4c2.475 2.816 3.755 6.571 3.84 11.264 0 4.096-1.152 7.765-3.456 11.008-2.219 3.243-5.461 5.803-9.728 7.68-4.181 1.792-9.088 2.688-14.72 2.688z"/><path d="m423.752 108.28v94.72h-17.92v-94.72z"/><path d="m80.752 274.008c0 2.56-.1707 4.864-.512 6.912h-51.84c.4267 5.12 2.2187 9.131 5.376 12.032s7.04 4.352 11.648 4.352c6.656 0 11.392-2.859 14.208-8.576h19.328c-2.048 6.827-5.9733 12.459-11.776 16.896-5.8027 4.352-12.928 6.528-21.376 6.528-6.8267 0-12.9707-1.493-18.432-4.48-5.376-3.072-9.6-7.381-12.672-12.928-2.9867-5.547-4.48-11.947-4.48-19.2 0-7.339 1.4933-13.781 4.48-19.328s7.168-9.813 12.544-12.8 11.5627-4.48 18.56-4.48c6.7413 0 12.7573 1.451 18.048 4.352 5.376 2.901 9.5147 7.04 12.416 12.416 2.9867 5.291 4.48 11.392 4.48 18.304zm-18.56-5.12c-.0853-4.608-1.7493-8.277-4.992-11.008-3.2427-2.816-7.2107-4.224-11.904-4.224-4.4373 0-8.192 1.365-11.264 4.096-2.9867 2.645-4.8213 6.357-5.504 11.136z"/><path d="m114.696 254.808v34.304c0 2.389.555 4.139 1.664 5.248 1.195 1.024 3.157 1.536 5.888 1.536h8.32v15.104h-11.264c-15.104 0-22.656-7.339-22.656-22.016v-34.176h-8.448v-14.72h8.448v-17.536h18.048v17.536h15.872v14.72z"/><path d="m164.321 254.808v34.304c0 2.389.555 4.139 1.664 5.248 1.195 1.024 3.157 1.536 5.888 1.536h8.32v15.104h-11.264c-15.104 0-22.656-7.339-22.656-22.016v-34.176h-8.448v-14.72h8.448v-17.536h18.048v17.536h15.872v14.72z"/><path d="m259.002 274.008c0 2.56-.171 4.864-.512 6.912h-51.84c.427 5.12 2.219 9.131 5.376 12.032s7.04 4.352 11.648 4.352c6.656 0 11.392-2.859 14.208-8.576h19.328c-2.048 6.827-5.973 12.459-11.776 16.896-5.803 4.352-12.928 6.528-21.376 6.528-6.827 0-12.971-1.493-18.432-4.48-5.376-3.072-9.6-7.381-12.672-12.928-2.987-5.547-4.48-11.947-4.48-19.2 0-7.339 1.493-13.781 4.48-19.328s7.168-9.813 12.544-12.8 11.563-4.48 18.56-4.48c6.741 0 12.757 1.451 18.048 4.352 5.376 2.901 9.515 7.04 12.416 12.416 2.987 5.291 4.48 11.392 4.48 18.304zm-18.56-5.12c-.085-4.608-1.749-8.277-4.992-11.008-3.243-2.816-7.211-4.224-11.904-4.224-4.437 0-8.192 1.365-11.264 4.096-2.987 2.645-4.821 6.357-5.504 11.136z"/><path d="m290.002 251.096c2.304-3.755 5.291-6.699 8.96-8.832 3.755-2.133 8.021-3.2 12.8-3.2v18.816h-4.736c-5.632 0-9.899 1.323-12.8 3.968-2.816 2.645-4.224 7.253-4.224 13.824v35.328h-17.92v-70.912h17.92z"/></g><path d="m356.344 254.808h-12.416v56.192h-18.176v-56.192h-8.064v-14.72h8.064v-3.584c0-8.704 2.475-15.104 7.424-19.2s12.416-6.016 22.4-5.76v15.104c-4.352-.085-7.381.64-9.088 2.176s-2.56 4.309-2.56 8.32v2.944h12.416z" fill="#fff" fill-opacity=".15"/><path d="m399.445 312.152c-6.827 0-12.971-1.493-18.432-4.48-5.461-3.072-9.771-7.381-12.928-12.928-3.072-5.547-4.608-11.947-4.608-19.2s1.579-13.653 4.736-19.2c3.243-5.547 7.637-9.813 13.184-12.8 5.547-3.072 11.733-4.608 18.56-4.608s13.013 1.536 18.56 4.608c5.547 2.987 9.899 7.253 13.056 12.8 3.243 5.547 4.864 11.947 4.864 19.2s-1.664 13.653-4.992 19.2c-3.243 5.547-7.68 9.856-13.312 12.928-5.547 2.987-11.776 4.48-18.688 4.48zm0-15.616c3.243 0 6.272-.768 9.088-2.304 2.901-1.621 5.205-4.011 6.912-7.168s2.56-6.997 2.56-11.52c0-6.741-1.792-11.904-5.376-15.488-3.499-3.669-7.808-5.504-12.928-5.504s-9.429 1.835-12.928 5.504c-3.413 3.584-5.12 8.747-5.12 15.488s1.664 11.947 4.992 15.616c3.413 3.584 7.68 5.376 12.8 5.376z" fill="#fff" fill-opacity=".15"/><path d="m32.752 359.096c2.304-3.755 5.2907-6.699 8.96-8.832 3.7547-2.133 8.0213-3.2 12.8-3.2v18.816h-4.736c-5.632 0-9.8987 1.323-12.8 3.968-2.816 2.645-4.224 7.253-4.224 13.824v35.328h-17.92v-70.912h17.92z" fill="#fff" fill-opacity=".15"/><path d="m134.422 348.088-43.904 104.448h-19.072l15.36-35.328-28.416-69.12h20.096l18.304 49.536 18.56-49.536z" fill="#fff" fill-opacity=".15"/><path d="m175.57 420.152c-6.827 0-12.971-1.493-18.432-4.48-5.461-3.072-9.771-7.381-12.928-12.928-3.072-5.547-4.608-11.947-4.608-19.2s1.579-13.653 4.736-19.2c3.243-5.547 7.637-9.813 13.184-12.8 5.547-3.072 11.733-4.608 18.56-4.608s13.013 1.536 18.56 4.608c5.547 2.987 9.899 7.253 13.056 12.8 3.243 5.547 4.864 11.947 4.864 19.2s-1.664 13.653-4.992 19.2c-3.243 5.547-7.68 9.856-13.312 12.928-5.547 2.987-11.776 4.48-18.688 4.48zm0-15.616c3.243 0 6.272-.768 9.088-2.304 2.901-1.621 5.205-4.011 6.912-7.168s2.56-6.997 2.56-11.52c0-6.741-1.792-11.904-5.376-15.488-3.499-3.669-7.808-5.504-12.928-5.504s-9.429 1.835-12.928 5.504c-3.413 3.584-5.12 8.747-5.12 15.488s1.664 11.947 4.992 15.616c3.413 3.584 7.68 5.376 12.8 5.376z" fill="#fff" fill-opacity=".15"/><path d="m292.651 348.088v70.912h-18.048v-8.96c-2.304 3.072-5.333 5.504-9.088 7.296-3.669 1.707-7.68 2.56-12.032 2.56-5.547 0-10.453-1.152-14.72-3.456-4.267-2.389-7.637-5.845-10.112-10.368-2.389-4.608-3.584-10.069-3.584-16.384v-41.6h17.92v39.04c0 5.632 1.408 9.984 4.224 13.056 2.816 2.987 6.656 4.48 11.52 4.48 4.949 0 8.832-1.493 11.648-4.48 2.816-3.072 4.224-7.424 4.224-13.056v-39.04z" fill="#fff" fill-opacity=".15"/><path d="m318.268 419.896c-3.243 0-5.931-.981-8.064-2.944-2.048-2.048-3.072-4.565-3.072-7.552s1.024-5.461 3.072-7.424c2.133-2.048 4.821-3.072 8.064-3.072 3.157 0 5.76 1.024 7.808 3.072 2.048 1.963 3.072 4.437 3.072 7.424s-1.024 5.504-3.072 7.552c-2.048 1.963-4.651 2.944-7.808 2.944z" fill="#fff"/></svg>
